PathFileType	4	(X/Y/Z)	/Users/visionmauri/Downloads/Videos/OAW05-top_Sports2D/OAW05-top_Sports2D_px_person00.trc
DataRate	CameraRate	NumFrames	NumMarkers	Units	OrigDataRate	OrigDataStartFrame	OrigNumFrames
28.0	28.0	4	22	m	28.0	1363	2182
Frame#	Time	Hip			RHip			RKnee			RAnkle			RBigToe			RSmallToe			RHeel			LHip			LKnee			LAnkle			LBigToe			LSmallToe			LHeel			Neck			Head			Nose			RShoulder			RElbow			RWrist			LShoulder			LElbow			LWrist			
		X1	Y1	Z1	X2	Y2	Z2	X3	Y3	Z3	X4	Y4	Z4	X5	Y5	Z5	X6	Y6	Z6	X7	Y7	Z7	X8	Y8	Z8	X9	Y9	Z9	X10	Y10	Z10	X11	Y11	Z11	X12	Y12	Z12	X13	Y13	Z13	X14	Y14	Z14	X15	Y15	Z15	X16	Y16	Z16	X17	Y17	Z17	X18	Y18	Z18	X19	Y19	Z19	X20	Y20	Z20	X21	Y21	Z21	X22	Y22	Z22
1363	48.70089081024432	534.2384548017201	450.1355991983294	0.0	520.672810238536	447.0035193783214	0.0	518.1312683201622	507.7384520619151	0.0	514.6503226646032	556.2924547400532	0.0	514.7563626877229	571.4536104206398	0.0	507.79019877628065	569.6034515533086	0.0	516.5266616024811	564.6781617201011	0.0	546.9061981980698	454.3582100106186	0.0	545.0103868616288	506.34312392688054	0.0	544.2296154293267	559.4060317341335	0.0	541.6762441329284	572.9125919345921	0.0	548.8896264018133	572.4240794668277	0.0	540.9379716763319	567.90617445241	0.0	535.1775694368835	395.7564999655414	0.0	536.4527927987223	347.6081635409512	0.0	535.8299173145094	359.8835714524939	0.0	510.5504822117909	397.78359579675475	0.0	503.7870342305934	441.64158857369074	0.0	503.8447130336847	458.0082643802001	0.0	557.7563910147101	397.80186971724316	0.0	562.2483081182035	437.2157595204396	0.0	562.6978224369168	460.00913986490815	0.0
1364	48.73662147114692	534.77603400955	450.6577032691166	0.0	521.2572764756815	448.2769510904958	0.0	518.3510310129175	508.0885092581712	0.0	514.6551324328783	556.8134306103142	0.0	514.7888353350282	571.6794433248101	0.0	507.45273000956274	569.9064384550998	0.0	516.7220938654287	565.2990226387162	0.0	547.6067619803976	454.66378832502215	0.0	546.3665971838757	506.66454762150204	0.0	545.8093454581712	560.7442692258599	0.0	543.8821779183404	574.5492567245623	0.0	551.3970657516145	573.9930171173821	0.0	542.6909571157825	569.701338373145	0.0	535.9022374533077	399.5083556326438	0.0	536.8625030196079	350.9657371960242	0.0	536.4855522232602	357.6625532288414	0.0	510.9124668234574	400.7757685703995	0.0	504.58810198055806	439.1207051513949	0.0	504.74343247634994	458.3150777456679	0.0	558.2943029634906	400.71863797378603	0.0	562.6107359260075	432.77955465528794	0.0	563.3638944254208	460.40385408158784	0.0
1365	48.77235213204952	535.3680339419215	451.29289069223626	0.0	522.1318780256246	450.93058530902744	0.0	518.9273210635735	508.4695720800349	0.0	514.7450142459677	556.9059880519012	0.0	514.8189664633605	571.6892026837473	0.0	507.1800865747565	570.1249542559373	0.0	516.475578145216	565.7349059141105	0.0	548.2721578727557	454.4219089757917	0.0	547.5209603766774	506.9483641499935	0.0	546.9845210457406	561.7472338906703	0.0	545.3555790378144	576.7380647194085	0.0	553.3391224548608	576.2291642358155	0.0	544.3031959728485	571.3967554883843	0.0	536.8063956488062	395.2002945873697	0.0	537.4641872843947	353.48731943572244	0.0	537.3335924624041	357.28322435533715	0.0	512.1935383239436	398.1394316505441	0.0	505.71697363617307	431.6438944744788	0.0	505.6908544875365	459.04741588494045	0.0	559.0050054788352	397.9830861012467	0.0	562.8742057689266	427.9716891500141	0.0	564.4701815365412	461.31286698825954	0.0
1366	48.80808279295212	536.3229758858778	452.07731173760436	0.0	523.28347653608	453.2533989222592	0.0	519.7186430931869	508.70684814768475	0.0	514.7129513753463	556.7697853417128	0.0	514.8744389999787	571.6249566311205	0.0	507.11483842986377	570.3175062973377	0.0	515.6470854006526	565.9853551258188	0.0	549.2599613596741	454.3359796224863	0.0	548.2457230376028	507.9148950866395	0.0	547.6221083315569	562.9846554344102	0.0	545.8041693308361	578.8268432635977	0.0	554.12534012255	578.5074477928929	0.0	545.1556701584016	573.0840328189147	0.0	537.9170496139379	385.03029404019503	0.0	538.6231787279955	352.4965373087445	0.0	538.5823905229395	361.4374242270241	0.0	514.2836320917703	391.01415427993606	0.0	506.8019811373203	426.02472413478495	0.0	506.72274178490403	460.2007832148935	0.0	559.9602894607013	390.9638689617452	0.0	563.5142978708855	426.5545632701898	0.0	565.9761901295362	463.19132976527726	0.0
